<svg width="24" height="25" viewBox="0 0 24 25" fill="none" xmlns="http://www.w3.org/2000/svg">
<g clip-path="url(#clip0_260_9725)">
<path d="M12.31 1.47217C16.4797 1.47217 19.8217 4.90904 19.8217 9.07867C19.8217 10.7253 19.5029 11.7839 18.5485 13.1212C17.2837 14.8792 16.066 15.9217 16.066 18.0858V19.741C16.066 21.7938 14.2994 23.3695 12.247 23.3695C10.1699 23.3695 8.42767 21.7229 8.42767 19.6458C8.42767 19.1523 8.79329 18.7222 9.28717 18.7222C10.0349 18.7222 10.003 19.6852 10.2738 20.3778C10.6079 21.2212 11.2998 21.7143 12.2152 21.7143C13.3848 21.7143 14.4112 20.8473 14.4112 19.6773V17.8312C14.4112 14.0992 18.2305 12.7788 18.2305 9.04679C18.2305 5.74454 15.5485 3.06329 12.2467 3.06329C10.2014 3.06329 8.76142 3.73154 7.53554 5.35492C6.81142 6.31792 6.48517 7.02592 6.32617 8.21917C6.23054 8.95904 6.21554 9.93817 5.46704 9.93817C4.97354 9.93817 4.60754 9.50842 4.60754 9.01492C4.60717 4.81417 8.10854 1.47217 12.31 1.47217Z" fill="#717171"/>
<path d="M12.0869 3.76343C15.0472 3.76343 17.5931 6.02355 17.5931 8.98343C17.5931 9.36518 17.3384 9.74693 16.9567 9.74693C16.5427 9.74693 16.4474 9.26168 16.3837 8.85593C16.2404 7.96493 16.1684 7.39193 15.6832 6.62843C14.8878 5.37893 13.7343 4.97318 12.2463 4.97318C10.8378 4.97318 9.83543 5.44268 8.99956 6.5643C8.54581 7.16955 8.26268 7.97843 8.11981 8.72655C8.00843 9.3393 8.13293 9.81105 7.50443 9.81105C7.11443 9.81105 6.89956 9.4053 6.89956 9.01493C6.90031 6.13455 9.20768 3.76343 12.0877 3.76343H12.0869ZM2.98231 15.5077L5.73668 18.2621L5.04893 18.9498L2.29456 16.1954L2.98231 15.5077ZM4.36793 14.1224L7.12268 16.8772L6.43456 17.5653L3.67981 14.8106L4.36793 14.1224ZM5.80006 12.6727L8.55443 15.4278L7.86668 16.1156L5.11231 13.3604L5.80043 12.6727H5.80006ZM7.46393 11.0557L10.2183 13.8108L9.53018 14.4986L6.77581 11.7434L7.46393 11.0557Z" fill="#717171"/>
<path d="M9.0066 9.60097L11.761 12.3553L11.0732 13.0431L8.31885 10.2887L9.0066 9.60097ZM10.5745 7.88647L13.3288 10.6416L12.6407 11.3293L9.88635 8.57422L10.5745 7.88647ZM18.3231 1.8141L19.4413 2.93235L18.7187 3.65497L17.6005 2.53672L18.3231 1.8141ZM19.7773 0.350098L20.8952 1.46835L20.1722 2.19097L19.0543 1.07272L19.7773 0.350098Z" fill="#717171"/>
</g>
<defs>
<clipPath id="clip0_260_9725">
<rect width="23.63" height="24" fill="white" transform="translate(0 0.128906)"/>
</clipPath>
</defs>
</svg>

