<svg width="24" height="25" viewBox="0 0 24 25" fill="none" xmlns="http://www.w3.org/2000/svg">
<path d="M23.9208 16.3583C23.8362 16.2525 23.7093 16.1679 23.5613 16.1679C22.3345 16.1679 21.4885 15.5546 20.5368 14.8355C20.3253 14.6874 20.1138 14.5182 19.9023 14.3702C19.014 13.7568 17.9142 13.1223 16.3068 13.1223C15.63 13.1223 15.08 13.1223 14.657 13.1435H11.273C10.5328 13.1435 9.91942 13.7568 9.91942 14.4971C9.91942 15.2373 10.5328 15.8507 11.273 15.8507H14.4244C14.8474 15.9353 15.1435 16.2948 15.1435 16.739C15.1435 17.0562 14.9743 17.3312 14.7205 17.5004C14.5513 17.5427 14.1071 17.6696 13.5572 17.8176C13.1554 17.9234 12.7535 18.0291 12.3517 18.1349L12.2671 18.156C10.0886 18.7271 9.34836 18.9174 9.13686 18.9809C9.03111 18.9809 8.94651 18.9809 8.88306 18.9809L3.95508 15.7872L3.04562 15.1316C3.02447 15.1104 3.00332 15.1104 2.98217 15.0893C2.93987 15.0681 2.89757 15.0258 2.83412 15.0047C2.72837 14.9624 2.64377 14.9201 2.53802 14.8778C2.47457 14.8566 2.38997 14.8355 2.30537 14.8355C2.09386 14.7932 1.90351 14.8143 1.71316 14.8355C0.740256 14.9412 0 15.7449 0 16.7178C0 17.2254 0.190353 17.6907 0.549905 18.0503L0.571055 18.0714C0.697956 18.1983 0.846007 18.3041 0.994057 18.3887L9.17916 24.3107C9.22146 24.3319 9.26376 24.353 9.30606 24.3742L9.36951 24.3953H9.39066C9.64447 24.4799 9.87711 24.5222 10.0886 24.5222C10.2367 24.5222 10.3636 24.5011 10.5116 24.4799H10.5328H10.5751C15.7569 23.1686 19.4793 22.2169 21.3193 21.7727C21.3405 21.7727 21.3616 21.7727 21.3616 21.7516L21.5308 21.6881C22.4191 21.4555 23.1171 21.3497 23.519 21.3497C23.7728 21.3497 23.9631 21.1382 23.9631 20.9056V20.6095C23.9631 20.5883 23.9631 20.546 23.9631 20.5249V16.6967C24.0266 16.5698 24.0054 16.4429 23.9208 16.3583ZM23.1171 20.4826C22.6518 20.5249 22.0596 20.6518 21.3405 20.821C21.3193 20.821 21.2982 20.8421 21.277 20.8421L21.129 20.9056C19.2678 21.3709 15.5665 22.3015 10.4059 23.6128H10.3847C10.1732 23.6551 9.98287 23.6339 9.72906 23.5705L1.54396 17.6484C1.52281 17.6273 1.50166 17.6273 1.48051 17.6061C1.39591 17.5638 1.31131 17.5004 1.24786 17.4369C1.24786 17.4369 1.24786 17.4369 1.22671 17.4158C1.03636 17.2254 0.930606 16.9716 0.930606 16.7178C0.930606 16.1891 1.33246 15.7661 1.84006 15.7238C1.86121 15.7238 1.88236 15.7238 1.88236 15.7238C1.96696 15.7026 2.05156 15.7026 2.17846 15.7238C2.22077 15.7238 2.26307 15.7449 2.28422 15.7449C2.32652 15.7661 2.36882 15.7872 2.43227 15.8084C2.45342 15.8295 2.49572 15.8295 2.51687 15.8507C2.51687 15.8507 2.53802 15.8507 2.53802 15.8718L3.40517 16.5063C3.40517 16.5063 3.42632 16.5063 3.42632 16.5275L8.43891 19.7846C8.48121 19.8058 8.52351 19.8269 8.56581 19.8481C8.73501 19.8904 8.94651 19.9115 9.20031 19.8904C9.22146 19.8904 9.26376 19.8904 9.28491 19.8692C9.51756 19.8058 10.5962 19.5308 12.4786 19.0444L12.5632 19.0232C12.9439 18.9174 13.3457 18.8117 13.7476 18.7059C14.4032 18.5367 14.8897 18.4098 14.9955 18.3675C15.0378 18.3675 15.0589 18.3464 15.1012 18.3252C15.6723 18.008 16.0318 17.4158 16.0318 16.7601C16.0318 15.8718 15.3973 15.1316 14.5301 14.9835C14.509 14.9835 14.4878 14.9835 14.4667 14.9835H11.273C11.0192 14.9835 10.8289 14.772 10.8289 14.5394C10.8289 14.3067 11.0404 14.0952 11.273 14.0952H14.6782C15.1224 14.0741 15.6723 14.0741 16.3279 14.0741C17.6604 14.0741 18.591 14.6028 19.3947 15.1527C19.6062 15.3008 19.7965 15.4488 20.008 15.5969C20.8963 16.2525 21.8269 16.9505 23.1171 17.0774V20.0384V20.4826C23.1171 20.4614 23.1171 20.4614 23.1171 20.4826Z" fill="#7B809A"/>
<path d="M15.4819 0.939915V0.91877C15.4819 0.686118 15.2915 0.49576 15.0589 0.474609H15.0377H15.0166C11.8652 0.474609 9.11569 2.39928 7.97358 5.21225C7.76208 3.98554 7.19103 2.80112 6.23927 1.84937C6.19697 1.80707 6.17582 1.78593 6.13352 1.76478C6.11237 1.74363 6.11237 1.74362 6.09122 1.72247C5.92202 1.57442 5.66822 1.57442 5.47786 1.72247L5.45672 1.74362C3.15135 4.04898 3.0456 7.79256 5.22406 10.246L5.24521 10.2671L2.51685 12.9955L2.98215 13.4608L5.71052 10.7324L5.73167 10.7536C6.91608 11.8111 8.37543 12.3187 9.85594 12.3187C11.4422 12.3187 13.0285 11.7053 14.234 10.5209L14.2552 10.4998C14.4244 10.3306 14.4032 10.0556 14.2552 9.88642L14.234 9.86528C13.2188 8.85007 11.9287 8.25786 10.5962 8.08866C13.4726 6.98885 15.4819 4.21819 15.4819 0.939915ZM13.2611 10.1825C11.273 11.8534 8.31198 11.8534 6.34502 10.0768C6.32387 10.0556 6.30272 10.0345 6.28157 10.0133C6.26042 9.99218 6.26042 9.99218 6.23927 9.97103C6.21812 9.94988 6.19697 9.92873 6.17582 9.90758C6.15467 9.88643 6.13352 9.88643 6.11237 9.84413C6.07007 9.80183 6.02777 9.75952 5.98547 9.71722L5.92202 9.63263C4.16656 7.64452 4.14541 4.68349 5.83742 2.69537C7.46598 4.51429 7.65633 7.20036 6.26042 9.23077C6.13352 9.39997 6.15467 9.65378 6.30272 9.80183C6.45077 9.94988 6.70457 9.97103 6.87377 9.84413C8.81959 8.49052 11.4634 8.65972 13.2611 10.1825ZM8.31198 7.66566C8.33313 7.41185 8.35428 7.15806 8.41773 6.90426C8.96764 3.85864 11.5268 1.61672 14.5724 1.42637C14.3609 4.76809 11.696 7.433 8.31198 7.66566Z" fill="#7B809A"/>
</svg>
